<svg width="270" height="270" viewBox="0 0 270 270" fill="none" xmlns="http://www.w3.org/2000/svg">
<circle cx="135" cy="135" r="135" fill="#F3F8FF"/>
<path d="M157.685 188.2C157.685 200.792 147.529 211 135 211C122.471 211 112.315 200.792 112.315 188.2M148.585 91.213C151.878 87.7937 153.905 83.1347 153.905 78C153.905 67.5066 145.441 59 135 59C124.559 59 116.095 67.5066 116.095 78C116.095 83.1347 118.122 87.7937 121.415 91.213M180.371 128.92C180.371 118.439 175.591 108.387 167.082 100.975C158.573 93.5637 147.033 89.4 135 89.4C122.967 89.4 111.427 93.5637 102.918 100.975C94.4093 108.387 89.6292 118.439 89.6292 128.92C89.6292 146.262 85.3502 158.944 80.011 168.02C73.9259 178.363 70.8833 183.534 71.0034 184.77C71.1409 186.183 71.394 186.629 72.5345 187.467C73.5314 188.2 78.5399 188.2 88.5568 188.2H181.443C191.46 188.2 196.469 188.2 197.466 187.467C198.606 186.629 198.859 186.183 198.997 184.77C199.117 183.534 196.074 178.363 189.989 168.02C184.65 158.944 180.371 146.262 180.371 128.92Z" stroke="#25282B" stroke-width="5" stroke-linecap="round" stroke-linejoin="round"/>
</svg>
