<svg width="270" height="270" viewBox="0 0 270 270" fill="none" xmlns="http://www.w3.org/2000/svg">
<circle cx="135" cy="135" r="135" fill="#F3F8FF"/>
<path d="M211 135C211 176.974 176.974 211 135 211C93.0264 211 59 176.974 59 135M211 135C211 93.0264 176.974 59 135 59M211 135H192M59 135C59 93.0264 93.0264 59 135 59M59 135H78M135 59V78M188.796 81.8L175.599 94.997M202.479 170H67.5213M81.2044 81.8L94.4014 94.997" stroke="#25282B" stroke-width="5" stroke-linecap="round" stroke-linejoin="round"/>
<path d="M144.464 145.962C138.607 151.82 129.109 151.82 123.251 145.962C117.393 140.104 117.393 130.607 123.251 124.749C130.877 117.123 158.607 110.607 158.607 110.607C158.607 110.607 152.09 138.336 144.464 145.962Z" stroke="#25282B" stroke-width="5" stroke-linecap="round" stroke-linejoin="round"/>
</svg>
