<svg width="270" height="270" viewBox="0 0 270 270" fill="none" xmlns="http://www.w3.org/2000/svg">
<circle cx="135" cy="135" r="135" fill="#F3F8FF"/>
<path d="M60 207.5C58.6193 207.5 57.5 208.619 57.5 210C57.5 211.381 58.6193 212.5 60 212.5V207.5ZM210 212.5C211.381 212.5 212.5 211.381 212.5 210C212.5 208.619 211.381 207.5 210 207.5V212.5ZM210 62.5C211.381 62.5 212.5 61.3807 212.5 60C212.5 58.6193 211.381 57.5 210 57.5V62.5ZM60 57.5C58.6193 57.5 57.5 58.6193 57.5 60C57.5 61.3807 58.6193 62.5 60 62.5V57.5ZM167 99.625V102.125V99.625ZM167 119.625V122.125V119.625ZM177 109.625H174.5H177ZM157 109.625H154.5H157ZM60 212.5H70V207.5H60V212.5ZM200 212.5H210V207.5H200V212.5ZM70 212.5H200V207.5H70V212.5ZM200 62.5H210V57.5H200V62.5ZM60 62.5H70V57.5H60V62.5ZM70 62.5H200V57.5H70V62.5ZM202.5 210V78.625H197.5V210H202.5ZM70 81.125H200V76.125H70V81.125ZM72.5 78.625V60H67.5V78.625H72.5ZM202.5 78.625V60H197.5V78.625H202.5ZM164.5 78.625V99.625H169.5V78.625H164.5ZM167 122.125C173.904 122.125 179.5 116.529 179.5 109.625H174.5C174.5 113.767 171.142 117.125 167 117.125V122.125ZM179.5 109.625C179.5 102.721 173.904 97.125 167 97.125V102.125C171.142 102.125 174.5 105.483 174.5 109.625H179.5ZM167 97.125C160.096 97.125 154.5 102.721 154.5 109.625H159.5C159.5 105.483 162.858 102.125 167 102.125V97.125ZM154.5 109.625C154.5 116.529 160.096 122.125 167 122.125V117.125C162.858 117.125 159.5 113.767 159.5 109.625H154.5ZM200 76.125H167V81.125H200V76.125ZM167 76.125H70V81.125H167V76.125ZM72.5 210V78.625H67.5V210H72.5Z" fill="#25282B"/>
</svg>
