<svg width="270" height="270" viewBox="0 0 270 270" fill="none" xmlns="http://www.w3.org/2000/svg">
<circle cx="135" cy="135" r="135" fill="#F3F8FF"/>
<path d="M171.834 138.796L195.793 92.8308M171.834 138.796L167.037 148L119 139.524M171.834 138.796L197.212 143.273L221 97.2785L195.793 92.8308M195.793 92.8308L199.901 84.9495L77.2377 63.3063C66.3985 61.3938 56.0622 68.6361 54.151 79.4825L49.3061 106.977C47.3949 117.824 54.6324 128.167 65.4716 130.079L119 139.524M119 139.524V155C119 166.201 119 171.802 116.82 176.08C114.903 179.843 111.843 182.903 108.08 184.82C103.802 187 98.2011 187 87 187H51M51 187V167M51 187V207" stroke="#25282B" stroke-width="5" stroke-linecap="round" stroke-linejoin="round"/>
</svg>
