<svg width="270" height="270" viewBox="0 0 270 270" fill="none" xmlns="http://www.w3.org/2000/svg">
<circle cx="135" cy="135" r="135" fill="#F3F8FF"/>
<path d="M112.5 205V149.747C112.5 145.565 112.5 143.474 113.317 141.877C114.037 140.472 115.184 139.33 116.595 138.614C118.199 137.8 120.3 137.8 124.5 137.8H145.5C149.7 137.8 151.801 137.8 153.405 138.614C154.816 139.33 155.964 140.472 156.683 141.877C157.5 143.474 157.5 145.565 157.5 149.747V205M120.6 73.8853L75 107.933V181.107C75 189.47 75 193.652 76.6349 196.846C78.073 199.656 80.3677 201.941 83.1902 203.372C86.3988 205 90.5992 205 99 205H171C179.401 205 183.601 205 186.81 203.372C189.632 201.941 191.927 199.656 193.365 196.846C195 193.652 195 189.47 195 181.107V107.933L149.4 73.8853M60 119.133L127.8 68.5093C130.382 66.5815 131.673 65.6176 133.091 65.246C134.342 64.918 135.658 64.918 136.909 65.246C138.327 65.6176 139.618 66.5815 142.2 68.5093L210 119.133" stroke="#25282B" stroke-width="5" stroke-linecap="round" stroke-linejoin="round"/>
</svg>
