<svg width="270" height="270" viewBox="0 0 270 270" fill="none" xmlns="http://www.w3.org/2000/svg">
<circle cx="135" cy="135" r="135" fill="#F3F8FF"/>
<path d="M120.6 73.8853L75 107.933V181.107C75 189.47 75 193.652 76.6349 196.846C78.073 199.656 80.3677 201.941 83.1902 203.372C86.3988 205 90.5992 205 99 205H171C179.401 205 183.601 205 186.81 203.372C189.632 201.941 191.927 199.656 193.365 196.846C195 193.652 195 189.47 195 181.107V107.933L149.4 73.8853M60 119.133L127.8 68.5093C130.382 66.5815 131.673 65.6176 133.091 65.246C134.342 64.918 135.658 64.918 136.909 65.246C138.327 65.6176 139.618 66.5815 142.2 68.5093L210 119.133" stroke="#25282B" stroke-width="5" stroke-linecap="round" stroke-linejoin="round"/>
<path d="M152.9 134.5L117.1 155.5M152.9 134.5L156.142 122.206M152.9 134.5L165 137.794M117.1 155.5L105 152.206M117.1 155.5L113.858 167.794M152.899 155.5L117.1 134.5M152.899 155.5L165 152.205M152.899 155.5L156.142 167.794M117.1 134.5L113.858 122.206M117.1 134.5L105 137.795M135 124L135 166M135 124L126.142 115M135 124L143.858 115M135 166L126.142 175M135 166L143.858 175" stroke="#25282B" stroke-width="5" stroke-linecap="round" stroke-linejoin="round"/>
</svg>
