<svg width="270" height="270" viewBox="0 0 270 270" fill="none" xmlns="http://www.w3.org/2000/svg">
<circle cx="135" cy="135" r="135" fill="#F3F8FF"/>
<path d="M92.1 192C72.7148 192 57 175.594 57 155.357C57 136.274 70.9738 120.598 88.822 118.872C92.473 95.6874 111.758 78 135 78C158.242 78 177.527 95.6874 181.178 118.872C199.026 120.598 213 136.274 213 155.357C213 175.594 197.285 192 177.9 192C143.659 192 122.078 192 92.1 192Z" stroke="#25282B" stroke-width="5" stroke-linecap="round" stroke-linejoin="round"/>
<path fill-rule="evenodd" clip-rule="evenodd" d="M123.503 154.628C122.057 162.423 116.114 167 107.383 167C96.7322 167 90 159.519 90 147.487C90 135.533 96.7848 128 107.383 128C115.982 128 122.478 133.258 123.477 141.131H117.639C116.587 136.292 112.537 133.127 107.383 133.127C100.493 133.127 96.0222 138.751 96.0222 147.487C96.0222 156.302 100.44 161.873 107.409 161.873C112.695 161.873 116.456 159.179 117.639 154.628H123.503ZM128.445 147.513C128.445 135.507 135.283 128 146.223 128C157.136 128 164 135.507 164 147.513C164 159.519 157.136 167 146.223 167C135.283 167 128.445 159.519 128.445 147.513ZM157.952 147.513C157.952 138.698 153.428 133.153 146.223 133.153C139.017 133.153 134.468 138.698 134.468 147.513C134.468 156.302 139.017 161.847 146.223 161.847C153.428 161.847 157.952 156.302 157.952 147.513ZM173.728 154.983H169C169 150.271 172.715 147 178 147C183.218 147 186.662 150.051 186.662 154.119C186.662 157.119 185.193 158.966 181.073 162.915L175.957 167.831V167.932H187V172H169.287V168.492L177.916 160.288C181.006 157.305 181.698 156.136 181.698 154.441C181.698 152.475 180.195 150.983 178 150.983C175.568 150.983 173.728 152.627 173.728 154.983Z" fill="#25282B"/>
</svg>
