<svg width="270" height="270" viewBox="0 0 270 270" fill="none" xmlns="http://www.w3.org/2000/svg">
<circle cx="135" cy="135" r="135" fill="#F3F8FF"/>
<path d="M145.088 173.2C142.988 174.07 140.325 174 135 174C129.675 174 127.012 174.07 124.912 173.2M145.088 173.2C147.888 172.04 150.113 170.088 151.273 167.288C152.143 165.188 152.143 160.325 152.143 155V151.151C165.657 144.731 175 130.957 175 115C175 92.9086 157.091 75 135 75C112.909 75 95 92.9086 95 115C95 130.957 104.343 144.731 117.857 151.151V155C117.857 160.325 117.857 165.188 118.727 167.288C119.887 170.088 122.112 172.04 124.912 173.2M145.088 173.2L145.088 187H124.912L124.912 173.2" stroke="#25282B" stroke-width="5" stroke-linecap="round" stroke-linejoin="round"/>
<path d="M135 45V60.2458M80.3105 114.704H65M95.8862 75.7558L84.5186 64.4361M174.114 75.7558L185.481 64.4361M205 114.704H189.69" stroke="#25282B" stroke-width="5" stroke-linecap="round" stroke-linejoin="round"/>
<path d="M95 215L125 215M125 215C125 220.523 129.477 225 135 225C140.523 225 145 220.523 145 215M125 215C125 209.477 129.477 205 135 205C140.523 205 145 209.477 145 215M145 215L175 215" stroke="#25282B" stroke-width="5" stroke-linecap="round" stroke-linejoin="round"/>
</svg>
