<svg width="270" height="270" viewBox="0 0 270 270" fill="none" xmlns="http://www.w3.org/2000/svg">
<circle cx="135" cy="135" r="135" fill="#F3F8FF"/>
<path d="M145.088 173.2C142.988 174.07 140.325 174 135 174C129.675 174 127.012 174.07 124.912 173.2M145.088 173.2C147.888 172.04 150.113 170.088 151.273 167.288C152.143 165.188 152.143 160.325 152.143 155V151.151C165.657 144.731 175 130.957 175 115C175 92.9086 157.091 75 135 75C112.909 75 95 92.9086 95 115C95 130.957 104.343 144.731 117.857 151.151V155C117.857 160.325 117.857 165.188 118.727 167.288C119.887 170.088 122.112 172.04 124.912 173.2M145.088 173.2L145.088 187H124.912L124.912 173.2" stroke="#25282B" stroke-width="5" stroke-linecap="round" stroke-linejoin="round"/>
<path d="M175 215L122 215M122 215C122 220.523 117.523 225 112 225C106.477 225 102 220.523 102 215M122 215C122 209.477 117.523 205 112 205C106.477 205 102 209.477 102 215M102 215L95 215" stroke="#25282B" stroke-width="5" stroke-linecap="round" stroke-linejoin="round"/>
</svg>
