<svg width="270" height="270" viewBox="0 0 270 270" fill="none" xmlns="http://www.w3.org/2000/svg">
<circle cx="135" cy="135" r="135" fill="#F3F8FF"/>
<path d="M134 128L134 142" stroke="#25282B" stroke-width="5" stroke-linecap="round"/>
<path d="M60 207.5C58.6193 207.5 57.5 208.619 57.5 210C57.5 211.381 58.6193 212.5 60 212.5V207.5ZM210 212.5C211.381 212.5 212.5 211.381 212.5 210C212.5 208.619 211.381 207.5 210 207.5V212.5ZM85 60V57.5C83.6193 57.5 82.5 58.6193 82.5 60H85ZM185 60H187.5C187.5 58.7578 186.588 57.704 185.359 57.5258L185 60ZM116 50L116.359 47.5258C115.64 47.4218 114.913 47.6348 114.364 48.1097C113.815 48.5846 113.5 49.2744 113.5 50H116ZM116 220H113.5C113.5 220.726 113.815 221.415 114.364 221.89C114.913 222.365 115.64 222.578 116.359 222.474L116 220ZM60 212.5H85V207.5H60V212.5ZM185 212.5H210V207.5H185V212.5ZM187.5 210V60H182.5V210H187.5ZM87.5 210V60H82.5V210H87.5ZM116 57.5H85V62.5H116V57.5ZM85 212.5H116V207.5H85V212.5ZM118.5 210V60H113.5V210H118.5ZM113.5 50V60H118.5V50H113.5ZM115.641 52.4742L184.641 62.4742L185.359 57.5258L116.359 47.5258L115.641 52.4742ZM113.5 210V220H118.5V210H113.5ZM116.359 222.474L185.359 212.474L184.641 207.526L115.641 217.526L116.359 222.474Z" fill="#25282B"/>
</svg>
