<svg width="270" height="270" viewBox="0 0 270 270" fill="none" xmlns="http://www.w3.org/2000/svg">
<circle cx="135" cy="135" r="135" fill="#F3F8FF"/>
<path d="M60 207.5C58.6193 207.5 57.5 208.619 57.5 210C57.5 211.381 58.6193 212.5 60 212.5V207.5ZM210 212.5C211.381 212.5 212.5 211.381 212.5 210C212.5 208.619 211.381 207.5 210 207.5V212.5ZM85 60.0002V57.5002C83.6193 57.5002 82.5 58.6195 82.5 60.0002H85ZM185 60.0002H187.5C187.5 58.6195 186.381 57.5002 185 57.5002V60.0002ZM60 212.5H85V207.5H60V212.5ZM185 212.5H210V207.5H185V212.5ZM85 212.5H185V207.5H85V212.5ZM187.5 210V60.0002H182.5V210H187.5ZM87.5 210V60.0002H82.5V210H87.5ZM185 57.5002H85V62.5002H185V57.5002Z" fill="#25282B"/>
<path d="M108 128L108 142" stroke="#25282B" stroke-width="5" stroke-linecap="round"/>
</svg>
