<svg width="270" height="270" viewBox="0 0 270 270" fill="none" xmlns="http://www.w3.org/2000/svg">
<circle cx="135" cy="135" r="135" fill="#F3F8FF"/>
<path d="M151 135H215C215 157.091 198.691 179 175 179C157.067 179 143.364 166.447 137.762 150.764M151 135C151 143.837 143.837 151 135 151M151 135C151 126.163 143.837 119 135 119M135 151V215C112.909 215 91 198.691 91 175C91 157.066 103.554 143.363 119.238 137.761M135 151C126.163 151 119 143.837 119 135M119 135H55C55 112.909 71.3086 91 95 91C112.904 91 126.591 103.512 132.21 119.159M119 135C119 126.163 126.163 119 135 119M135 119V55C157.091 55 179 71.3086 179 95C179 112.843 166.573 126.498 151 132.153" stroke="#25282B" stroke-width="5" stroke-linecap="round" stroke-linejoin="round"/>
<path d="M135 142C138.866 142 142 138.866 142 135C142 131.134 138.866 128 135 128C131.134 128 128 131.134 128 135C128 138.866 131.134 142 135 142Z" stroke="#25282B" stroke-width="5" stroke-linecap="round" stroke-linejoin="round"/>
</svg>
