<svg width="270" height="270" viewBox="0 0 270 270" fill="none" xmlns="http://www.w3.org/2000/svg">
<circle cx="135" cy="135" r="135" fill="#F3F8FF"/>
<path d="M188.74 188.74C218.42 159.06 218.42 110.94 188.74 81.2599M188.74 188.74L175.305 175.305M188.74 188.74C171.479 206.001 147.981 213.224 125.5 210.407M81.2599 81.2599C110.94 51.58 159.06 51.58 188.74 81.2599M81.2599 81.2599L94.6949 94.6949M81.2599 81.2599C59.0267 103.493 53.4484 136.074 64.525 163.5M188.74 81.2599L175.305 94.6949M210.658 135.421H191.994M134.579 59.3427V78.0061" stroke="#25282B" stroke-width="5" stroke-linecap="round" stroke-linejoin="round"/>
<path d="M163.499 106.5L140.374 129.626M142.6 135C142.6 139.197 139.197 142.6 135 142.6C130.803 142.6 127.4 139.197 127.4 135C127.4 130.803 130.803 127.4 135 127.4C139.197 127.4 142.6 130.803 142.6 135Z" stroke="#25282B" stroke-width="5" stroke-linecap="round" stroke-linejoin="round"/>
<path d="M135 185.304C135 207.407 117.539 223 96 223C74.4609 223 57 207.407 57 185.304C57 164.975 96 121 96 121C96 121 135 164.975 135 185.304Z" stroke="#25282B" stroke-width="5" stroke-linejoin="round"/>
</svg>
