<svg width="270" height="270" viewBox="0 0 270 270" fill="none" xmlns="http://www.w3.org/2000/svg">
<circle cx="135" cy="135" r="135" fill="#F3F8FF"/>
<path d="M125.007 163.617L106.235 184.66C105.372 185.523 104.941 185.955 104.437 186.264C103.991 186.538 103.504 186.74 102.995 186.862C102.421 187 101.126 187 99.9057 187H67.9759C67.9759 187 57 186.988 57 177C57 167.012 67.9759 167 67.9759 167H96.9123L112.5 148.843M125.007 163.617C131.524 169.487 138.82 175.84 138.82 175.84V204C138.82 204 138.708 215 148.798 215C158.889 215 159.18 204 159.18 204V171.314C159.18 170.091 159.18 169.479 159.041 168.904C158.917 168.394 158.713 167.906 158.437 167.459C158.125 166.954 157.689 166.522 156.816 165.657L138.565 147L151.44 128.641M125.007 163.617C121.733 160.667 118.656 157.839 116.8 156C114.919 154.136 113.418 151.64 112.5 148.843M112.5 148.843C110.709 143.388 111.136 136.789 115.286 131.5L132.945 109H106.709L88.546 127C88.546 127 80.4735 136 74.4191 130C68.3648 124 75.4282 117 75.4282 117L96.5242 96.5595C98.2617 94.876 99.1304 94.0342 100.139 93.4326C101.033 92.8992 102.005 92.5065 103.021 92.2685C104.166 92 105.381 92 107.811 92H142.217C143.803 92 149.067 95.9055 154.162 100.009C157.959 103.068 159.857 104.597 160.838 106.687C161.675 108.473 161.969 110.644 161.635 112.584C161.582 112.891 161.509 113.195 161.415 113.5M161.415 113.5C160.813 115.452 159.347 117.478 156.765 121.047L151.44 128.641M161.415 113.5L176.351 128.9L202 129.043C202 129.043 212.952 128.467 213 137C213.048 145.533 202 145.41 202 145.41L174.775 144.914C172.359 144.873 171.15 144.853 170.013 144.564C169.004 144.307 168.04 143.896 167.154 143.345C166.154 142.723 165.295 141.862 163.577 140.14L151.44 128.641M187 73C187 82.9411 178.941 91 169 91C159.059 91 151 82.9411 151 73C151 63.0589 159.059 55 169 55C178.941 55 187 63.0589 187 73Z" stroke="#25282B" stroke-width="5" stroke-linecap="round" stroke-linejoin="round"/>
</svg>
