<svg width="270" height="270" viewBox="0 0 270 270" fill="none" xmlns="http://www.w3.org/2000/svg">
<circle cx="135" cy="135" r="135" fill="#F3F8FF"/>
<path d="M99 126.795V159.773M99 126.795V75.8343C99 69.2984 104.373 64 111 64C117.627 64 123 69.2984 123 75.8343M99 126.795C99 120.259 93.6274 114.961 87 114.961C80.3726 114.961 75 120.259 75 126.795V155.828C75 188.508 101.863 215 135 215C168.137 215 195 188.508 195 155.828V101.834C195 95.2984 189.627 90 183 90C176.373 90 171 95.2984 171 101.834M123 75.8343V136.105M123 75.8343V66.8343C123 60.2984 128.373 55 135 55C141.627 55 147 60.2984 147 66.8343V75.8343M147 75.8343V136.105M147 75.8343C147 69.2984 152.373 64 159 64C165.627 64 171 69.2984 171 75.8343V101.834M171 101.834V136.105" stroke="#25282B" stroke-width="5" stroke-linecap="round" stroke-linejoin="round"/>
</svg>
