<svg width="270" height="270" viewBox="0 0 270 270" fill="none" xmlns="http://www.w3.org/2000/svg">
<circle cx="135" cy="135" r="135" fill="#F3F8FF"/>
<path d="M85.0222 175.299C85.0222 168.588 99.4667 105.537 100.566 102.891C102.032 99.3618 104.844 96.558 108.383 95.0963C111.038 94 114.403 94 121.133 94L148.867 94C155.597 94 158.962 94 161.617 95.0963C165.156 96.558 167.968 99.3618 169.434 102.891C170.533 105.537 184.978 168.588 184.978 175.299M85.0222 175.299C86.81 175.228 88.9678 175.228 91.6667 175.228H178.333C181.032 175.228 183.19 175.228 184.978 175.299M85.0222 175.299C82.3518 175.405 80.5068 175.668 78.9168 176.325C75.3775 177.786 72.5655 180.59 71.0995 184.119C70 186.766 70 200 70 200C76.7303 200 200 200 200 200C200 200 200 186.766 198.9 184.119C197.434 180.59 194.623 177.786 191.083 176.325C189.493 175.668 187.648 175.405 184.978 175.299M85.0222 175.299H184.978" stroke="#25282B" stroke-width="5" stroke-linecap="round" stroke-linejoin="round"/>
</svg>
