<svg width="270" height="270" viewBox="0 0 270 270" fill="none" xmlns="http://www.w3.org/2000/svg">
<circle cx="135" cy="135" r="135" fill="#F3F8FF"/>
<path d="M199.243 190L68.757 190C63.5916 190 61.0089 190 59.0359 189.209C57.3005 188.513 55.8895 187.403 55.0053 186.038C54 184.486 54 182.454 54 178.39L54 171.61C54 167.546 54 165.514 55.0053 163.962C55.8895 162.597 57.3005 161.487 59.0359 160.791C61.0089 160 63.5916 160 68.757 160L199.243 160M199.243 190C204.408 190 206.991 190 208.964 189.209C210.7 188.513 212.11 187.403 212.995 186.038C214 184.486 216 181.564 216 175C216 168.436 214 165.514 212.995 163.962C212.11 162.597 210.7 161.487 208.964 160.791C206.991 160 204.408 160 199.243 160M199.243 190C199.243 190 196.243 183.358 196.243 175C196.243 166.642 199.243 160 199.243 160M88 190V160" stroke="#25282B" stroke-width="5" stroke-linecap="round" stroke-linejoin="round"/>
<path d="M156.049 80L139.373 80.0001C127.017 80.0001 117 90.1483 117 102.667C117 115.185 127.017 125.333 139.373 125.333L182.627 125.333C194.983 125.333 205 135.482 205 148" stroke="#25282B" stroke-width="5" stroke-linecap="round" stroke-linejoin="round"/>
</svg>
