<svg width="270" height="270" viewBox="0 0 270 270" fill="none" xmlns="http://www.w3.org/2000/svg">
<circle cx="135" cy="135" r="135" fill="#F3F8FF"/>
<path d="M126.795 122L159.773 122M126.795 122L73.7771 122C67.2412 122 61.9428 127.373 61.9428 134C61.9428 140.627 67.2412 146 73.7771 146M126.795 122C120.259 122 114.961 116.627 114.961 110C114.961 103.373 120.259 98 126.795 98L155.828 98C188.508 98 215 124.863 215 158C215 191.137 188.508 218 155.828 218H123.008C116.472 218 111.174 212.627 111.174 206C111.174 199.373 116.472 194 123.008 194M73.7771 146L136.105 146M73.7771 146H66.8343C60.2984 146 55 151.373 55 158C55 164.627 60.2984 170 66.8343 170L115.434 170M115.434 170H136.105M115.434 170C108.898 170 103.6 175.373 103.6 182C103.6 188.627 108.898 194 115.434 194H123.008M123.008 194H136.105" stroke="#25282B" stroke-width="5" stroke-linecap="round" stroke-linejoin="round"/>
<path d="M100 52L55 97M55 97H85M55 97V67" stroke="#25282B" stroke-width="5" stroke-linecap="round" stroke-linejoin="round"/>
</svg>
