<svg width="270" height="270" viewBox="0 0 270 270" fill="none" xmlns="http://www.w3.org/2000/svg">
<circle cx="135" cy="135" r="135" fill="#F3F8FF"/>
<path d="M122 136.795V169.773M122 136.795V83.7771C122 77.2412 127.373 71.9428 134 71.9428C140.627 71.9428 146 77.2412 146 83.7771M122 136.795C122 130.259 116.627 124.961 110 124.961C103.373 124.961 98 130.259 98 136.795V165.828C98 198.508 124.863 225 158 225C191.137 225 218 198.508 218 165.828V133.008C218 126.472 212.627 121.174 206 121.174C199.373 121.174 194 126.472 194 133.008M146 83.7771V146.105M146 83.7771V76.8343C146 70.2984 151.373 65 158 65C164.627 65 170 70.2984 170 76.8343V125.434M170 125.434V146.105M170 125.434C170 118.898 175.373 113.6 182 113.6C188.627 113.6 194 118.898 194 125.434V133.008M194 133.008V146.105" stroke="#25282B" stroke-width="5" stroke-linecap="round" stroke-linejoin="round"/>
<path d="M52 97L97 52M97 52H67M97 52V82" stroke="#25282B" stroke-width="5" stroke-linecap="round" stroke-linejoin="round"/>
</svg>
