<svg width="270" height="270" viewBox="0 0 270 270" fill="none" xmlns="http://www.w3.org/2000/svg">
<circle cx="135" cy="135" r="135" fill="#F3F8FF"/>
<path d="M143.205 122L110.227 122M143.205 122L196.223 122C202.759 122 208.057 127.373 208.057 134C208.057 140.627 202.759 146 196.223 146M143.205 122C149.741 122 155.039 116.627 155.039 110C155.039 103.373 149.741 98 143.205 98L114.172 98C81.492 98 55 124.863 55 158C55 191.137 81.492 218 114.172 218H146.992C153.528 218 158.826 212.627 158.826 206C158.826 199.373 153.528 194 146.992 194M196.223 146L133.895 146M196.223 146H203.166C209.702 146 215 151.373 215 158C215 164.627 209.702 170 203.166 170L154.566 170M154.566 170H133.895M154.566 170C161.102 170 166.4 175.373 166.4 182C166.4 188.627 161.102 194 154.566 194H146.992M146.992 194H133.895" stroke="#25282B" stroke-width="5" stroke-linecap="round" stroke-linejoin="round"/>
<path d="M215 97L170 52M170 52V82M170 52H200" stroke="#25282B" stroke-width="5" stroke-linecap="round" stroke-linejoin="round"/>
</svg>
