<svg width="270" height="270" viewBox="0 0 270 270" fill="none" xmlns="http://www.w3.org/2000/svg">
<circle cx="135" cy="135" r="135" fill="#F3F8FF"/>
<path d="M120.6 73.8853L75 107.933V181.107C75 189.47 75 193.652 76.6349 196.846C78.073 199.656 80.3677 201.941 83.1902 203.372C86.3988 205 90.5992 205 99 205H171C179.401 205 183.601 205 186.81 203.372C189.632 201.941 191.927 199.656 193.365 196.846C195 193.652 195 189.47 195 181.107V107.933L149.4 73.8853M60 119.133L127.8 68.5093C130.382 66.5815 131.673 65.6176 133.091 65.246C134.342 64.918 135.658 64.918 136.909 65.246C138.327 65.6176 139.618 66.5815 142.2 68.5093L210 119.133" stroke="#25282B" stroke-width="5" stroke-linecap="round" stroke-linejoin="round"/>
<path d="M123.75 142.786L131.25 150.162L148.125 133.566M165 144.63C165 162.732 144.923 175.899 137.617 180.09C136.787 180.566 136.372 180.805 135.786 180.928C135.332 181.024 134.668 181.024 134.214 180.928C133.628 180.805 133.213 180.566 132.383 180.09C125.077 175.899 105 162.732 105 144.63V126.992C105 124.043 105 122.569 105.49 121.302C105.924 120.182 106.627 119.183 107.541 118.391C108.576 117.495 109.979 116.977 112.787 115.942L132.893 108.526C133.673 108.239 134.063 108.095 134.464 108.038C134.819 107.987 135.181 107.987 135.536 108.038C135.937 108.095 136.327 108.239 137.107 108.526L157.213 115.942C160.021 116.977 161.424 117.495 162.459 118.391C163.373 119.183 164.076 120.182 164.51 121.302C165 122.569 165 124.043 165 126.992V144.63Z" stroke="#25282B" stroke-width="5" stroke-linecap="round" stroke-linejoin="round"/>
</svg>
