<svg width="270" height="270" viewBox="0 0 270 270" fill="none" xmlns="http://www.w3.org/2000/svg">
<circle cx="135" cy="135" r="135" fill="#F3F8FF"/>
<path d="M120.6 73.8853L75 107.933V181.107C75 189.47 75 193.652 76.6349 196.846C78.073 199.656 80.3677 201.941 83.1902 203.372C86.3988 205 90.5992 205 99 205H171C179.401 205 183.601 205 186.81 203.372C189.632 201.941 191.927 199.656 193.365 196.846C195 193.652 195 189.47 195 181.107V107.933L149.4 73.8853M60 119.133L127.8 68.5093C130.382 66.5815 131.673 65.6176 133.091 65.246C134.342 64.918 135.658 64.918 136.909 65.246C138.327 65.6176 139.618 66.5815 142.2 68.5093L210 119.133" stroke="#25282B" stroke-width="5" stroke-linecap="round" stroke-linejoin="round"/>
<path d="M123.298 112.163L132.94 108.526C133.702 108.239 134.083 108.095 134.476 108.038C134.823 107.987 135.177 107.987 135.524 108.038C135.916 108.095 136.298 108.239 137.06 108.526L156.72 115.942C159.465 116.977 160.837 117.495 161.849 118.391C162.742 119.183 163.43 120.182 163.854 121.302C164.333 122.569 164.333 124.043 164.333 126.992V144.63C164.333 147.286 163.911 149.837 163.167 152.268M155.614 165.378C149.433 172.607 141.556 177.744 137.565 180.086C136.75 180.565 136.342 180.804 135.769 180.928C135.325 181.024 134.676 181.024 134.231 180.928C133.658 180.805 133.253 180.566 132.441 180.09C125.298 175.899 105.667 162.732 105.667 144.63V121.676C105.667 119.954 106.729 118.413 108.332 117.808M102 111.437L168 177.822" stroke="#25282B" stroke-width="5" stroke-linecap="round" stroke-linejoin="round"/>
</svg>
