<svg width="270" height="270" viewBox="0 0 270 270" fill="none" xmlns="http://www.w3.org/2000/svg">
<circle cx="135" cy="135" r="135" fill="#F3F8FF"/>
<path d="M135 57V75M135 195V213M75 135H57M92.3559 92.3559L78.7493 78.7493M177.644 92.3559L191.251 78.7493M92.3559 177.675L78.7493 191.282M177.644 177.675L191.251 191.282M213 135H195M172.5 135C172.5 155.711 155.711 172.5 135 172.5C114.289 172.5 97.5 155.711 97.5 135C97.5 114.289 114.289 97.5 135 97.5C155.711 97.5 172.5 114.289 172.5 135Z" stroke="#25282B" stroke-width="5" stroke-linecap="round" stroke-linejoin="round"/>
<path d="M119.376 124H115V137.992C115 142.761 118.405 146 123.767 146C129.115 146 132.52 142.761 132.52 137.992V124H128.144V137.542C128.144 140.316 126.564 142.131 123.767 142.131C120.956 142.131 119.376 140.316 119.376 137.542V124Z" fill="black"/>
<path d="M147.972 145.64L155 124H150.232L145.45 140.976H145.349L140.567 124H135.669L142.697 145.64H147.972Z" fill="black"/>
</svg>
