<svg width="270" height="270" viewBox="0 0 270 270" fill="none" xmlns="http://www.w3.org/2000/svg">
<circle cx="135" cy="135" r="135" fill="#F3F8FF"/>
<path d="M138 213V215.5H140.5V213H138ZM100 213H97.5V215.5H100V213ZM174.875 108.571V106.071C173.494 106.071 172.375 107.191 172.375 108.571H174.875ZM174.875 122.571H172.375C172.375 123.952 173.494 125.071 174.875 125.071V122.571ZM203 122.571V125.071C204.381 125.071 205.5 123.952 205.5 122.571H203ZM203 108.571H205.5C205.5 107.191 204.381 106.071 203 106.071V108.571ZM153.902 76V78.5V76ZM135.5 170V213H140.5V170H135.5ZM138 210.5H100V215.5H138V210.5ZM130 164.5C133.038 164.5 135.5 166.962 135.5 170H140.5C140.5 164.201 135.799 159.5 130 159.5V164.5ZM108 159.5C102.201 159.5 97.5 164.201 97.5 170H102.5C102.5 166.962 104.962 164.5 108 164.5V159.5ZM75.5 189.5C73.2909 189.5 71.5 187.709 71.5 185.5H66.5C66.5 190.471 70.5294 194.5 75.5 194.5V189.5ZM116.5 185.5C116.5 187.709 114.709 189.5 112.5 189.5V194.5C117.471 194.5 121.5 190.471 121.5 185.5H116.5ZM112.5 181.5C114.709 181.5 116.5 183.291 116.5 185.5H121.5C121.5 180.529 117.471 176.5 112.5 176.5V181.5ZM75.5 176.5C70.5294 176.5 66.5 180.529 66.5 185.5H71.5C71.5 183.291 73.2909 181.5 75.5 181.5V176.5ZM75.5 181.5H100V176.5H75.5V181.5ZM100 181.5H112.5V176.5H100V181.5ZM102.5 179V170H97.5V179H102.5ZM102.5 213V192H97.5V213H102.5ZM112.5 189.5H100V194.5H112.5V189.5ZM100 189.5H75.5V194.5H100V189.5ZM125.5 102.027V162H130.5V102.027H125.5ZM112.5 162V100.964H107.5V162H112.5ZM195.429 100.964V108.571H200.429V100.964H195.429ZM197.929 106.071H179.929V111.071H197.929V106.071ZM182.429 108.571V102.027H177.429V108.571H182.429ZM179.929 106.071H174.875V111.071H179.929V106.071ZM172.375 108.571V122.571H177.375V108.571H172.375ZM174.875 125.071H203V120.071H174.875V125.071ZM205.5 122.571V108.571H200.5V122.571H205.5ZM203 106.071H197.929V111.071H203V106.071ZM182.429 102.027C182.429 86.2719 169.657 73.5 153.902 73.5V78.5C166.895 78.5 177.429 89.0333 177.429 102.027H182.429ZM130.5 102.027C130.5 89.0176 140.924 78.5 153.902 78.5V73.5C138.131 73.5 125.5 86.2876 125.5 102.027H130.5ZM200.429 100.964C200.429 75.3028 179.626 54.5 153.964 54.5V59.5C176.864 59.5 195.429 78.0642 195.429 100.964H200.429ZM112.5 100.964C112.5 78.0642 131.064 59.5 153.964 59.5V54.5C128.303 54.5 107.5 75.3028 107.5 100.964H112.5ZM108 164.5H110V159.5H108V164.5ZM110 164.5H128V159.5H110V164.5ZM128 164.5H130V159.5H128V164.5Z" fill="#25282B"/>
</svg>
