<svg width="270" height="270" viewBox="0 0 270 270" fill="none" xmlns="http://www.w3.org/2000/svg">
<circle cx="135" cy="135" r="135" fill="#F3F8FF"/>
<path d="M60 207.5C58.6193 207.5 57.5 208.619 57.5 210C57.5 211.381 58.6193 212.5 60 212.5V207.5ZM210 212.5C211.381 212.5 212.5 211.381 212.5 210C212.5 208.619 211.381 207.5 210 207.5V212.5ZM210 62.5C211.381 62.5 212.5 61.3807 212.5 60C212.5 58.6193 211.381 57.5 210 57.5V62.5ZM60 57.5C58.6193 57.5 57.5 58.6193 57.5 60C57.5 61.3807 58.6193 62.5 60 62.5V57.5ZM82 198H79.5C79.5 199.381 80.6193 200.5 82 200.5V198ZM188 198V200.5C189.381 200.5 190.5 199.381 190.5 198H188ZM188 72H190.5C190.5 70.6193 189.381 69.5 188 69.5V72ZM82 72V69.5C80.6193 69.5 79.5 70.6193 79.5 72H82ZM60 212.5H70V207.5H60V212.5ZM200 212.5H210V207.5H200V212.5ZM70 212.5H200V207.5H70V212.5ZM200 62.5H210V57.5H200V62.5ZM60 62.5H70V57.5H60V62.5ZM202.5 210V198H197.5V210H202.5ZM72.5 210V198H67.5V210H72.5ZM72.5 198V129H67.5V198H72.5ZM72.5 129V60H67.5V129H72.5ZM202.5 198V129H197.5V198H202.5ZM202.5 129V60H197.5V129H202.5ZM70 62.5H135V57.5H70V62.5ZM135 62.5H200V57.5H135V62.5ZM82 200.5H188V195.5H82V200.5ZM190.5 198V72H185.5V198H190.5ZM188 69.5H82V74.5H188V69.5ZM79.5 72V198H84.5V72H79.5Z" fill="#25282B"/>
<path d="M142 186H128" stroke="#25282B" stroke-width="5" stroke-linecap="round"/>
</svg>
