<svg width="270" height="270" viewBox="0 0 270 270" fill="none" xmlns="http://www.w3.org/2000/svg">
<circle cx="135" cy="135" r="135" fill="#F3F8FF"/>
<path d="M60 207.5C58.6193 207.5 57.5 208.619 57.5 210C57.5 211.381 58.6193 212.5 60 212.5V207.5ZM210 212.5C211.381 212.5 212.5 211.381 212.5 210C212.5 208.619 211.381 207.5 210 207.5V212.5ZM210 62.5C211.381 62.5 212.5 61.3807 212.5 60C212.5 58.6193 211.381 57.5 210 57.5V62.5ZM60 57.5C58.6193 57.5 57.5 58.6193 57.5 60C57.5 61.3807 58.6193 62.5 60 62.5V57.5ZM202.5 168C202.5 166.619 201.381 165.5 200 165.5C198.619 165.5 197.5 166.619 197.5 168H202.5ZM131 166L128.783 167.156C129.214 167.982 130.068 168.5 131 168.5V166ZM237 166V168.5C237.874 168.5 238.685 168.043 239.138 167.296C239.591 166.548 239.621 165.618 239.216 164.843L237 166ZM188 72L190.219 70.8486C189.789 70.02 188.933 69.5 188 69.5V72ZM82 72V69.5C81.126 69.5 80.3155 69.9564 79.8624 70.7037C79.4092 71.4509 79.3791 72.3806 79.7831 73.1556L82 72ZM200 95.1273L197.781 96.2787L197.784 96.2843L200 95.1273ZM60 212.5H70V207.5H60V212.5ZM200 212.5H210V207.5H200V212.5ZM70 212.5H200V207.5H70V212.5ZM200 62.5H210V57.5H200V62.5ZM60 62.5H70V57.5H60V62.5ZM202.5 210V168H197.5V210H202.5ZM72.5 210V198H67.5V210H72.5ZM72.5 198V129H67.5V198H72.5ZM72.5 129V60H67.5V129H72.5ZM70 62.5H135V57.5H70V62.5ZM135 62.5H200V57.5H135V62.5ZM131 168.5H237V163.5H131V168.5ZM188 69.5H82V74.5H188V69.5ZM79.7831 73.1556L128.783 167.156L133.217 164.844L84.2169 70.8444L79.7831 73.1556ZM239.216 164.843L202.216 93.9703L197.784 96.2843L234.784 167.157L239.216 164.843ZM202.219 93.9759L190.219 70.8486L185.781 73.1514L197.781 96.2787L202.219 93.9759ZM202.5 95.1273V60H197.5V95.1273H202.5Z" fill="#25282B"/>
<path d="M191 154H177" stroke="#25282B" stroke-width="5" stroke-linecap="round"/>
</svg>
