<svg width="270" height="270" viewBox="0 0 270 270" fill="none" xmlns="http://www.w3.org/2000/svg">
<circle cx="135" cy="135" r="135" fill="#F3F8FF"/>
<path d="M60 207.5C58.6193 207.5 57.5 208.619 57.5 210C57.5 211.381 58.6193 212.5 60 212.5V207.5ZM210 212.5C211.381 212.5 212.5 211.381 212.5 210C212.5 208.619 211.381 207.5 210 207.5V212.5ZM210 62.5C211.381 62.5 212.5 61.3807 212.5 60C212.5 58.6193 211.381 57.5 210 57.5V62.5ZM60 57.5C58.6193 57.5 57.5 58.6193 57.5 60C57.5 61.3807 58.6193 62.5 60 62.5V57.5ZM167 200V202.5V200ZM167 220V222.5V220ZM177 210H174.5H177ZM70 153.375V150.875C68.6193 150.875 67.5 151.994 67.5 153.375H70ZM200 153.375H202.5C202.5 151.994 201.381 150.875 200 150.875V153.375ZM60 212.5H70V207.5H60V212.5ZM200 212.5H210V207.5H200V212.5ZM200 62.5H210V57.5H200V62.5ZM60 62.5H70V57.5H60V62.5ZM70 62.5H200V57.5H70V62.5ZM70 99.75H200V94.75H70V99.75ZM72.5 97.25V78.625H67.5V97.25H72.5ZM72.5 78.625V60H67.5V78.625H72.5ZM202.5 97.25V78.625H197.5V97.25H202.5ZM202.5 78.625V60H197.5V78.625H202.5ZM70 81.125H200V76.125H70V81.125ZM72.5 115.875V97.25H67.5V115.875H72.5ZM202.5 115.875V97.25H197.5V115.875H202.5ZM70 118.375H200V113.375H70V118.375ZM167 222.5C173.904 222.5 179.5 216.904 179.5 210H174.5C174.5 214.142 171.142 217.5 167 217.5V222.5ZM179.5 210C179.5 203.096 173.904 197.5 167 197.5V202.5C171.142 202.5 174.5 205.858 174.5 210H179.5ZM167 197.5C160.096 197.5 154.5 203.096 154.5 210H159.5C159.5 205.858 162.858 202.5 167 202.5V197.5ZM154.5 210C154.5 216.904 160.096 222.5 167 222.5V217.5C162.858 217.5 159.5 214.142 159.5 210H154.5ZM200 169.75H70V174.75H200V169.75ZM72.5 172.25V153.375H67.5V172.25H72.5ZM202.5 172.25V153.375H197.5V172.25H202.5ZM70 155.875H200V150.875H70V155.875ZM72.5 172.25V134.5H67.5V172.25H72.5ZM72.5 134.5V115.875H67.5V134.5H72.5ZM202.5 172.25V134.5H197.5V172.25H202.5ZM202.5 134.5V115.875H197.5V134.5H202.5ZM70 137H200V132H70V137ZM177 212.5H200V207.5H177V212.5ZM70 212.5H157V207.5H70V212.5ZM72.5 210V191.125H67.5V210H72.5ZM72.5 191.125V172.25H67.5V191.125H72.5ZM202.5 210V191.125H197.5V210H202.5ZM202.5 191.125V172.25H197.5V191.125H202.5ZM70 193.625H167V188.625H70V193.625ZM167 193.625H200V188.625H167V193.625ZM164.5 191.125V200H169.5V191.125H164.5Z" fill="#25282B"/>
</svg>
