<svg width="270" height="270" viewBox="0 0 270 270" fill="none" xmlns="http://www.w3.org/2000/svg">
<circle cx="135" cy="135" r="135" fill="#F3F8FF"/>
<path d="M60 207.5C58.6193 207.5 57.5 208.619 57.5 210C57.5 211.381 58.6193 212.5 60 212.5V207.5ZM210 212.5C211.381 212.5 212.5 211.381 212.5 210C212.5 208.619 211.381 207.5 210 207.5V212.5ZM210 62.5C211.381 62.5 212.5 61.3807 212.5 60C212.5 58.6193 211.381 57.5 210 57.5V62.5ZM60 57.5C58.6193 57.5 57.5 58.6193 57.5 60C57.5 61.3807 58.6193 62.5 60 62.5V57.5ZM167 155.5V158V155.5ZM167 175.5V178V175.5ZM177 165.5H174.5H177ZM157 165.5H154.5H157ZM60 212.5H70V207.5H60V212.5ZM200 212.5H210V207.5H200V212.5ZM70 212.5H200V207.5H70V212.5ZM200 62.5H210V57.5H200V62.5ZM60 62.5H70V57.5H60V62.5ZM70 62.5H200V57.5H70V62.5ZM70 99.75H200V94.75H70V99.75ZM72.5 97.25V78.625H67.5V97.25H72.5ZM72.5 78.625V60H67.5V78.625H72.5ZM202.5 97.25V78.625H197.5V97.25H202.5ZM202.5 78.625V60H197.5V78.625H202.5ZM70 81.125H200V76.125H70V81.125ZM72.5 134.5V115.875H67.5V134.5H72.5ZM72.5 115.875V97.25H67.5V115.875H72.5ZM202.5 134.5V115.875H197.5V134.5H202.5ZM202.5 115.875V97.25H197.5V115.875H202.5ZM70 118.375H200V113.375H70V118.375ZM164.5 134.5V155.5H169.5V134.5H164.5ZM167 178C173.904 178 179.5 172.404 179.5 165.5H174.5C174.5 169.642 171.142 173 167 173V178ZM179.5 165.5C179.5 158.596 173.904 153 167 153V158C171.142 158 174.5 161.358 174.5 165.5H179.5ZM167 153C160.096 153 154.5 158.596 154.5 165.5H159.5C159.5 161.358 162.858 158 167 158V153ZM154.5 165.5C154.5 172.404 160.096 178 167 178V173C162.858 173 159.5 169.642 159.5 165.5H154.5ZM200 132H167V137H200V132ZM167 132H70V137H167V132ZM72.5 210V134.5H67.5V210H72.5ZM202.5 210V134.5H197.5V210H202.5Z" fill="#25282B"/>
</svg>
