<svg width="270" height="270" viewBox="0 0 270 270" fill="none" xmlns="http://www.w3.org/2000/svg">
<circle cx="135" cy="135" r="135" fill="#F3F8FF"/>
<path d="M115.383 184C124.114 184 130.057 179.423 131.503 171.628H125.639C124.456 176.179 120.695 178.873 115.409 178.873C108.44 178.873 104.022 173.302 104.022 164.487C104.022 155.751 108.493 150.127 115.383 150.127C120.537 150.127 124.587 153.292 125.639 158.131H131.477C130.478 150.258 123.982 145 115.383 145C104.785 145 98 152.533 98 164.487C98 176.519 104.732 184 115.383 184Z" fill="#25282B"/>
<path d="M154.223 145C143.283 145 136.445 152.507 136.445 164.513C136.445 176.519 143.283 184 154.223 184C165.136 184 172 176.519 172 164.513C172 152.507 165.136 145 154.223 145ZM154.223 150.153C161.428 150.153 165.952 155.698 165.952 164.513C165.952 173.302 161.428 178.847 154.223 178.847C147.017 178.847 142.468 173.302 142.468 164.513C142.468 155.698 147.017 150.153 154.223 150.153Z" fill="#25282B"/>
<path d="M64.7781 182.659L124.881 80.0789C128.203 74.4096 129.864 71.5749 132.031 70.6228C133.921 69.7924 136.079 69.7924 137.969 70.6228C140.136 71.5749 141.797 74.4096 145.119 80.0789L205.222 182.659C208.556 188.348 210.222 191.193 209.976 193.528C209.761 195.565 208.681 197.415 207.005 198.619C205.084 200 201.757 200 195.103 200H74.8967C68.243 200 64.9162 200 62.9946 198.619C61.3186 197.415 60.2387 195.565 60.0239 193.528C59.7775 191.193 61.4444 188.348 64.7781 182.659Z" stroke="#25282B" stroke-width="5" stroke-linecap="round" stroke-linejoin="round"/>
</svg>
