<svg width="270" height="270" viewBox="0 0 270 270" fill="none" xmlns="http://www.w3.org/2000/svg">
<circle cx="135" cy="135" r="135" fill="#F3F8FF"/>
<path d="M165 135L123.75 175L105 156.818" stroke="#25282B" stroke-width="5" stroke-linecap="round" stroke-linejoin="round"/>
<path d="M190.297 141.833C188.916 141.833 187.797 142.953 187.797 144.333C187.797 145.714 188.916 146.833 190.297 146.833V141.833ZM214 144.333V146.833C215.381 146.833 216.5 145.714 216.5 144.333H214ZM214 89.6667H216.5C216.5 88.286 215.381 87.1667 214 87.1667V89.6667ZM158.534 87.1667C157.153 87.1667 156.034 88.286 156.034 89.6667C156.034 91.0474 157.153 92.1667 158.534 92.1667V87.1667ZM110.466 92.1667C111.847 92.1667 112.966 91.0474 112.966 89.6667C112.966 88.286 111.847 87.1667 110.466 87.1667V92.1667ZM78.7032 146.833C80.084 146.833 81.2032 145.714 81.2032 144.333C81.2032 142.953 80.084 141.833 78.7032 141.833V146.833ZM56 144.333H53.5C53.5 145.714 54.6193 146.833 56 146.833V144.333ZM56 89.6667V87.1667C54.6193 87.1667 53.5 88.286 53.5 89.6667H56ZM230 80H232.5C232.5 78.6193 231.381 77.5 230 77.5V80ZM230 154V156.5C231.381 156.5 232.5 155.381 232.5 154H230ZM40 80V77.5C38.6193 77.5 37.5 78.6193 37.5 80H40ZM40 154H37.5C37.5 155.381 38.6193 156.5 40 156.5V154ZM134.5 60L136.368 58.3388C135.894 57.8053 135.214 57.5 134.5 57.5C133.786 57.5 133.106 57.8053 132.632 58.3388L134.5 60ZM190.297 146.833H214V141.833H190.297V146.833ZM214 87.1667H158.534V92.1667H214V87.1667ZM211.5 89.6667V144.333H216.5V89.6667H211.5ZM78.7032 141.833H56V146.833H78.7032V141.833ZM58.5 144.333V89.6667H53.5V144.333H58.5ZM56 92.1667H110.466V87.1667H56V92.1667ZM220 82.5H230V77.5H220V82.5ZM227.5 80V154H232.5V80H227.5ZM230 151.5H220V156.5H230V151.5ZM216.5 148V86H211.5V148H216.5ZM220 151.5C218.067 151.5 216.5 149.933 216.5 148H211.5C211.5 152.694 215.306 156.5 220 156.5V151.5ZM220 77.5C215.306 77.5 211.5 81.3056 211.5 86H216.5C216.5 84.067 218.067 82.5 220 82.5V77.5ZM40 82.5H50V77.5H40V82.5ZM53.5 86V148H58.5V86H53.5ZM50 151.5H40V156.5H50V151.5ZM42.5 154V80H37.5V154H42.5ZM53.5 148C53.5 149.933 51.933 151.5 50 151.5V156.5C54.6944 156.5 58.5 152.694 58.5 148H53.5ZM50 82.5C51.933 82.5 53.5 84.067 53.5 86H58.5C58.5 81.3056 54.6944 77.5 50 77.5V82.5ZM189.5 154.565C189.5 185.549 165.02 207.5 134.5 207.5V212.5C167.493 212.5 194.5 188.59 194.5 154.565H189.5ZM134.5 207.5C103.98 207.5 79.5 185.549 79.5 154.565H74.5C74.5 188.59 101.507 212.5 134.5 212.5V207.5ZM79.5 154.565C79.5 147.739 82.8351 138.553 88.1978 128.339C93.5112 118.22 100.623 107.44 107.777 97.5355C114.923 87.6398 122.075 78.666 127.444 72.1633C130.127 68.9133 132.362 66.2835 133.924 64.468C134.705 63.5604 135.318 62.8565 135.735 62.3805C135.943 62.1425 136.103 61.9616 136.209 61.8407C136.263 61.7802 136.303 61.7348 136.33 61.7048C136.343 61.6897 136.353 61.6786 136.359 61.6713C136.363 61.6676 136.365 61.665 136.366 61.6633C136.367 61.6624 136.368 61.6619 136.368 61.6615C136.368 61.6612 136.368 61.6612 134.5 60C132.632 58.3388 132.631 58.3393 132.631 58.34C132.63 58.3406 132.629 58.3415 132.628 58.3426C132.626 58.3449 132.623 58.3481 132.62 58.3523C132.612 58.3607 132.601 58.373 132.587 58.3892C132.558 58.4216 132.516 58.4693 132.461 58.5322C132.35 58.6578 132.186 58.8436 131.973 59.0866C131.548 59.5726 130.926 60.2873 130.134 61.2063C128.553 63.0443 126.295 65.7004 123.588 68.9802C118.175 75.5373 110.952 84.5994 103.723 94.6081C96.5017 104.608 89.2388 115.601 83.7709 126.015C78.3524 136.335 74.5 146.444 74.5 154.565H79.5ZM134.5 60C132.632 61.6612 132.632 61.6612 132.632 61.6615C132.632 61.6619 132.633 61.6624 132.634 61.6633C132.635 61.665 132.637 61.6676 132.641 61.6713C132.647 61.6786 132.657 61.6897 132.67 61.7048C132.697 61.7348 132.737 61.7802 132.791 61.8407C132.897 61.9616 133.057 62.1425 133.265 62.3805C133.682 62.8565 134.295 63.5604 135.076 64.468C136.638 66.2835 138.873 68.9133 141.556 72.1633C146.925 78.666 154.077 87.6398 161.223 97.5355C168.377 107.44 175.489 118.22 180.802 128.339C186.165 138.553 189.5 147.739 189.5 154.565H194.5C194.5 146.444 190.648 136.335 185.229 126.015C179.761 115.601 172.498 104.608 165.277 94.6081C158.048 84.5994 150.825 75.5373 145.412 68.9802C142.705 65.7004 140.447 63.0443 138.866 61.2063C138.074 60.2873 137.452 59.5726 137.027 59.0866C136.814 58.8436 136.65 58.6578 136.539 58.5322C136.484 58.4693 136.442 58.4216 136.413 58.3892C136.399 58.373 136.388 58.3607 136.38 58.3523C136.377 58.3481 136.374 58.3449 136.372 58.3426C136.371 58.3415 136.37 58.3406 136.369 58.34C136.369 58.3393 136.368 58.3388 134.5 60Z" fill="#25282B"/>
</svg>
