<svg width="270" height="270" viewBox="0 0 270 270" fill="none" xmlns="http://www.w3.org/2000/svg">
<circle cx="135" cy="135" r="135" fill="#F3F8FF"/>
<path d="M84 136.795V169.773M84 136.795V77C84 70.464 89.3726 65 96 65C102.627 65 108 70.4641 108 77M84 136.795C84 130.259 78.6274 124.961 72 124.961C65.3726 124.961 60 130.259 60 136.795V165.828C60 198.508 86.8629 225 120 225C133.507 225 145.972 220.598 156 213.17M108 77V146.105M108 77V117C108 110.464 113.373 105.166 120 105.166C126.627 105.166 132 110.464 132 117V125.434M132 125.434V146.105M132 125.434C132 118.898 137.373 113.6 144 113.6C150.627 113.6 156 118.898 156 125.434V133.008M156 133.008V146.105M156 133.008C156 126.472 161.373 121.174 168 121.174C174.627 121.174 180 126.472 180 133.008V165" stroke="#25282B" stroke-width="5" stroke-linecap="round" stroke-linejoin="round"/>
<path d="M121 70C121 56.1929 109.807 45 96 45C82.1929 45 71 56.1929 71 70" stroke="#25282B" stroke-width="5" stroke-linecap="round" stroke-linejoin="round"/>
<path d="M180 177V195L192 201M210 195C210 211.569 196.569 225 180 225C163.431 225 150 211.569 150 195C150 178.431 163.431 165 180 165C196.569 165 210 178.431 210 195Z" stroke="#25282B" stroke-width="5" stroke-linecap="round" stroke-linejoin="round"/>
</svg>
