<svg width="270" height="270" viewBox="0 0 270 270" fill="none" xmlns="http://www.w3.org/2000/svg">
<circle cx="135" cy="135" r="135" fill="#F3F8FF"/>
<path d="M93.125 118.333V101.667C93.125 78.6548 111.873 60 135 60C152.171 60 166.929 70.2841 173.391 85M135 153.833V174.5M108.2 210H161.8C175.871 210 182.907 210 188.282 207.275C193.009 204.878 196.853 201.054 199.262 196.35C202 191.002 202 184.001 202 170V158.333C202 144.332 202 137.331 199.262 131.984C196.853 127.28 193.009 123.455 188.282 121.058C182.907 118.333 175.871 118.333 161.8 118.333H108.2C94.1287 118.333 87.093 118.333 81.7185 121.058C76.9909 123.455 73.1473 127.28 70.7385 131.984C68 137.331 68 144.332 68 158.333V170C68 184.001 68 191.002 70.7385 196.35C73.1473 201.054 76.9909 204.878 81.7185 207.275C87.093 210 94.1287 210 108.2 210Z" stroke="#25282B" stroke-width="5" stroke-linecap="round" stroke-linejoin="round"/>
</svg>
