<svg width="270" height="270" viewBox="0 0 270 270" fill="none" xmlns="http://www.w3.org/2000/svg">
<circle cx="135" cy="135" r="135" fill="#F3F8FF"/>
<path d="M178.665 165.4C184.675 156.783 188.2 146.303 188.2 135C188.2 131.087 187.777 127.272 186.976 123.6M91.3356 165.4C85.325 156.783 81.8 146.303 81.8 135C81.8 105.618 105.618 81.8 135 81.8C138.208 81.8 141.35 82.084 144.402 82.6282M169.199 100.8L140.374 129.626M211 135C211 176.974 176.974 211 135 211C93.0264 211 59 176.974 59 135C59 93.0264 93.0264 59 135 59C176.974 59 211 93.0264 211 135ZM142.6 135C142.6 139.197 139.197 142.6 135 142.6C130.803 142.6 127.4 139.197 127.4 135C127.4 130.803 130.803 127.4 135 127.4C139.197 127.4 142.6 130.803 142.6 135Z" stroke="#25282B" stroke-width="5" stroke-linecap="round" stroke-linejoin="round"/>
</svg>
