<svg width="270" height="270" viewBox="0 0 270 270" fill="none" xmlns="http://www.w3.org/2000/svg">
<circle cx="135" cy="135" r="135" fill="#F3F8FF"/>
<path d="M135 163V204M135 204C135 204 135 215 145 215C155 215 155 204 155 204V163M135 204C135 204 135 215 125 215C115 215 115 204 115 204V163M155 163V130M155 163C160.601 163 163.401 163 165.54 161.91C167.422 160.951 168.951 159.422 169.91 157.54C171 155.401 171 152.601 171 147V126.642C171 121.067 171 118.28 170.311 116.012C168.76 110.905 164.758 106.909 159.645 105.36C157.373 104.672 154.582 104.672 149 104.672H121C115.418 104.672 112.627 104.672 110.355 105.36C105.242 106.909 101.24 110.905 99.689 116.012C99 118.28 99 121.067 99 126.642V147C99 152.601 99 155.401 100.09 157.54C101.049 159.422 102.578 160.951 104.46 161.91C106.599 163 109.399 163 115 163M115 163V130M153.149 73.1493C153.149 83.1728 145.024 91.2985 135 91.2985C124.976 91.2985 116.851 83.1728 116.851 73.1493C116.851 63.1257 124.976 55 135 55C145.024 55 153.149 63.1257 153.149 73.1493Z" stroke="#25282B" stroke-width="5" stroke-linecap="round" stroke-linejoin="round"/>
</svg>
