<svg width="270" height="270" viewBox="0 0 270 270" fill="none" xmlns="http://www.w3.org/2000/svg">
<circle cx="135" cy="135" r="135" fill="#F3F8FF"/>
<path d="M60 135H210M60 97.5H97.5M172.5 97.5H210M60 172.5H97.5M172.5 172.5H210M97.5 210V60M172.5 210V60M96 210H174C186.601 210 192.902 210 197.715 207.548C201.948 205.39 205.39 201.948 207.548 197.715C210 192.902 210 186.601 210 174V96C210 83.3988 210 77.0982 207.548 72.2852C205.39 68.0516 201.948 64.6095 197.715 62.4524C192.902 60 186.601 60 174 60H96C83.3988 60 77.0982 60 72.2852 62.4524C68.0516 64.6095 64.6095 68.0516 62.4524 72.2852C60 77.0982 60 83.3988 60 96V174C60 186.601 60 192.902 62.4524 197.715C64.6095 201.948 68.0516 205.39 72.2852 207.548C77.0982 210 83.3988 210 96 210Z" stroke="#25282B" stroke-width="5" stroke-linecap="round" stroke-linejoin="round"/>
</svg>
