<svg width="270" height="270" viewBox="0 0 270 270" fill="none" xmlns="http://www.w3.org/2000/svg">
<circle cx="135" cy="135" r="135" fill="#F3F8FF"/>
<path d="M139.892 119.063L116.474 142.462M139.892 119.063L177.539 81.444C182.18 76.8065 189.758 76.8591 194.464 81.5616C199.17 86.264 199.222 93.8356 194.581 98.4732M139.892 119.063C144.533 114.425 144.48 106.854 139.774 102.151C135.068 97.4486 127.491 97.396 122.85 102.034L102.233 122.634C79.0278 145.822 79.2912 183.68 102.821 207.192C126.352 230.704 164.239 230.968 187.444 207.78L210.749 184.492C215.39 179.855 215.338 172.283 210.632 167.581C205.926 162.878 198.348 162.826 193.707 167.463M194.581 98.4732L150.323 142.697M194.581 98.4732L199.511 93.5469C204.152 88.9094 211.73 88.962 216.436 93.6645C221.142 98.3669 221.194 105.939 216.553 110.576L182.043 145.06M182.043 145.06L167.365 159.727M182.043 145.06C186.684 140.422 194.262 140.475 198.968 145.177C203.674 149.88 203.727 157.451 199.085 162.089L193.707 167.463M193.707 167.463L184.407 176.756" stroke="#25282B" stroke-width="5" stroke-linecap="round" stroke-linejoin="round"/>
<path d="M50 72.5H110M110 72.5L87.5 50M110 72.5L87.5 95" stroke="#25282B" stroke-width="5" stroke-linecap="round" stroke-linejoin="round"/>
</svg>
