<svg width="270" height="270" viewBox="0 0 270 270" fill="none" xmlns="http://www.w3.org/2000/svg">
<circle cx="135" cy="135" r="135" fill="#F3F8FF"/>
<path d="M153.889 73.7586C153.889 63.3985 145.432 55 135 55C124.568 55 116.111 63.3985 116.111 73.7586V153.155C106.999 159.212 101 169.528 101 181.234C101 199.883 116.222 215 135 215C153.778 215 169 199.883 169 181.234C169 169.528 163.001 159.212 153.889 153.155V73.7586Z" stroke="#25282B" stroke-width="5" stroke-linecap="round" stroke-linejoin="round"/>
<path d="M186 77L168 77M186 101L168 101M186 125L168 125M179 89L168 89M179 113L168 113" stroke="#25282B" stroke-width="5" stroke-linecap="round" stroke-linejoin="round"/>
<path d="M135 170C128.925 170 124 174.925 124 181C124 187.075 128.925 192 135 192C141.075 192 146 187.075 146 181C146 174.925 141.075 170 135 170ZM135 170V114" stroke="#25282B" stroke-width="5" stroke-linecap="round" stroke-linejoin="round"/>
</svg>
