<svg width="270" height="270" viewBox="0 0 270 270" fill="none" xmlns="http://www.w3.org/2000/svg">
<circle cx="135" cy="135" r="135" fill="#F3F8FF"/>
<path d="M169.911 210C183.943 210 190.96 210 196.319 207.275C201.034 204.878 204.867 201.054 207.269 196.35C210 191.002 210 184.001 210 170V100C210 85.9987 210 78.998 207.269 73.6503C204.867 68.9462 201.034 65.1217 196.319 62.7249C190.96 60 183.943 60 169.911 60L100.089 60C86.0566 60 79.0403 60 73.6806 62.7248C68.9661 65.1217 65.1331 68.9462 62.7309 73.6502C60 78.998 60 85.9987 60 100L60 170C60 184.001 60 191.002 62.7309 196.35C65.1331 201.054 68.9661 204.878 73.6806 207.275C79.0403 210 86.0566 210 100.089 210H169.911Z" stroke="#25282B" stroke-width="5" stroke-linecap="round" stroke-linejoin="round"/>
<path d="M155 117.5L167.5 130L180 117.5M155 102.5L167.5 90L180 102.5" stroke="#25282B" stroke-width="5" stroke-linecap="round" stroke-linejoin="round"/>
<path d="M119.556 100.552C119.556 94.7242 114.83 90 109 90C103.17 90 98.4444 94.7242 98.4444 100.552V145.212C93.3525 148.619 90 154.422 90 161.007C90 171.496 98.5066 180 109 180C119.493 180 128 171.496 128 161.007C128 154.422 124.647 148.619 119.556 145.212V100.552Z" stroke="#25282B" stroke-width="5" stroke-linecap="round" stroke-linejoin="round"/>
<path d="M109 154.669C105.686 154.669 103 157.429 103 160.834C103 164.24 105.686 167 109 167C112.314 167 115 164.24 115 160.834C115 157.429 112.314 154.669 109 154.669ZM109 154.669V123" stroke="#25282B" stroke-width="5" stroke-linecap="round" stroke-linejoin="round"/>
<path d="M155 168H180M155 156H180M155 180H180" stroke="#25282B" stroke-width="5" stroke-linecap="round" stroke-linejoin="round"/>
</svg>
