<svg width="270" height="270" viewBox="0 0 270 270" fill="none" xmlns="http://www.w3.org/2000/svg">
<circle cx="135" cy="135" r="135" fill="#F3F8FF"/>
<path d="M138 213V215.5H140.5V213H138ZM100 213H97.5V215.5H100V213ZM175 108V105.5C173.619 105.5 172.5 106.619 172.5 108H175ZM175 122H172.5C172.5 123.381 173.619 124.5 175 124.5V122ZM203 122V124.5C204.381 124.5 205.5 123.381 205.5 122H203ZM203 108H205.5C205.5 106.619 204.381 105.5 203 105.5V108ZM153.902 76V78.5V76ZM135.5 170V213H140.5V170H135.5ZM138 210.5H100V215.5H138V210.5ZM130 164.5C133.038 164.5 135.5 166.962 135.5 170H140.5C140.5 164.201 135.799 159.5 130 159.5V164.5ZM108 159.5C102.201 159.5 97.5 164.201 97.5 170H102.5C102.5 166.962 104.962 164.5 108 164.5V159.5ZM75.5 189.5C73.2909 189.5 71.5 187.709 71.5 185.5H66.5C66.5 190.471 70.5294 194.5 75.5 194.5V189.5ZM116.5 185.5C116.5 187.709 114.709 189.5 112.5 189.5V194.5C117.471 194.5 121.5 190.471 121.5 185.5H116.5ZM112.5 181.5C114.709 181.5 116.5 183.291 116.5 185.5H121.5C121.5 180.529 117.471 176.5 112.5 176.5V181.5ZM75.5 176.5C70.5294 176.5 66.5 180.529 66.5 185.5H71.5C71.5 183.291 73.2909 181.5 75.5 181.5V176.5ZM75.5 181.5H100V176.5H75.5V181.5ZM100 181.5H112.5V176.5H100V181.5ZM102.5 179V170H97.5V179H102.5ZM102.5 213V192H97.5V213H102.5ZM112.5 189.5H100V194.5H112.5V189.5ZM100 189.5H75.5V194.5H100V189.5ZM125.5 102.027V162H130.5V102.027H125.5ZM112.5 162V100.964H107.5V162H112.5ZM195.429 100.964V108H200.429V100.964H195.429ZM197.929 105.5H179.929V110.5H197.929V105.5ZM182.429 108V102.027H177.429V108H182.429ZM179.929 105.5H175V110.5H179.929V105.5ZM172.5 108V122H177.5V108H172.5ZM175 124.5H203V119.5H175V124.5ZM205.5 122V108H200.5V122H205.5ZM203 105.5H197.929V110.5H203V105.5ZM182.429 102.027C182.429 86.2719 169.657 73.5 153.902 73.5V78.5C166.895 78.5 177.429 89.0333 177.429 102.027H182.429ZM130.5 102.027C130.5 89.0176 140.924 78.5 153.902 78.5V73.5C138.131 73.5 125.5 86.2876 125.5 102.027H130.5ZM200.429 100.964C200.429 75.3028 179.626 54.5 153.964 54.5V59.5C176.864 59.5 195.429 78.0642 195.429 100.964H200.429ZM112.5 100.964C112.5 78.0642 131.064 59.5 153.964 59.5V54.5C128.303 54.5 107.5 75.3028 107.5 100.964H112.5ZM108 164.5H110V159.5H108V164.5ZM110 164.5H128V159.5H110V164.5ZM128 164.5H130V159.5H128V164.5Z" fill="#25282B"/>
<path d="M211 172.826C211 185.828 201.15 195 189 195C176.85 195 167 185.828 167 172.826C167 160.868 189 135 189 135C189 135 211 160.868 211 172.826Z" stroke="#25282B" stroke-width="5" stroke-linejoin="round"/>
</svg>
