<svg width="270" height="270" viewBox="0 0 270 270" fill="none" xmlns="http://www.w3.org/2000/svg">
<circle cx="135" cy="135" r="135" fill="#F3F8FF"/>
<path d="M60 207.5C58.6193 207.5 57.5 208.619 57.5 210C57.5 211.381 58.6193 212.5 60 212.5V207.5ZM210 212.5C211.381 212.5 212.5 211.381 212.5 210C212.5 208.619 211.381 207.5 210 207.5V212.5ZM210 62.5C211.381 62.5 212.5 61.3807 212.5 60C212.5 58.6193 211.381 57.5 210 57.5V62.5ZM60 57.5C58.6193 57.5 57.5 58.6193 57.5 60C57.5 61.3807 58.6193 62.5 60 62.5V57.5ZM120 135H117.5C117.5 136.381 118.619 137.5 120 137.5V135ZM150 135V137.5C151.381 137.5 152.5 136.381 152.5 135H150ZM60 212.5H70V207.5H60V212.5ZM200 212.5H210V207.5H200V212.5ZM70 212.5H200V207.5H70V212.5ZM200 62.5H210V57.5H200V62.5ZM60 62.5H70V57.5H60V62.5ZM202.5 210V125H197.5V210H202.5ZM72.5 210V125H67.5V210H72.5ZM150 127.5H200V122.5H150V127.5ZM70 127.5H120V122.5H70V127.5ZM117.5 125V135H122.5V125H117.5ZM152.5 135V125H147.5V135H152.5ZM72.5 125V60H67.5V125H72.5ZM202.5 125V60H197.5V125H202.5ZM70 62.5H135V57.5H70V62.5ZM135 62.5H200V57.5H135V62.5ZM120 137.5H150V132.5H120V137.5ZM120 127.5H135V122.5H120V127.5ZM135 127.5H150V122.5H135V127.5ZM137.5 125V60H132.5V125H137.5Z" fill="#25282B"/>
</svg>
