<svg width="270" height="270" viewBox="0 0 270 270" fill="none" xmlns="http://www.w3.org/2000/svg">
<circle cx="135" cy="135" r="135" fill="#F3F8FF"/>
<path d="M60 207.5C58.6193 207.5 57.5 208.619 57.5 210C57.5 211.381 58.6193 212.5 60 212.5V207.5ZM210 212.5C211.381 212.5 212.5 211.381 212.5 210C212.5 208.619 211.381 207.5 210 207.5V212.5ZM210 62.5C211.381 62.5 212.5 61.3807 212.5 60C212.5 58.6193 211.381 57.5 210 57.5V62.5ZM60 57.5C58.6193 57.5 57.5 58.6193 57.5 60C57.5 61.3807 58.6193 62.5 60 62.5V57.5ZM118 188L115.612 188.741C115.937 189.787 116.905 190.5 118 190.5V188ZM224 188V190.5C224.788 190.5 225.529 190.129 226.001 189.498C226.473 188.868 226.621 188.052 226.399 187.296L224 188ZM188 72L190.359 71.1723C190.008 70.1705 189.062 69.5 188 69.5V72ZM82 72V69.5C81.2056 69.5 80.4584 69.8776 79.9872 70.5172C79.516 71.1568 79.3769 71.9823 79.6123 72.741L82 72ZM60 212.5H70V207.5H60V212.5ZM200 212.5H210V207.5H200V212.5ZM70 212.5H200V207.5H70V212.5ZM200 62.5H210V57.5H200V62.5ZM60 62.5H70V57.5H60V62.5ZM202.5 210V188H197.5V210H202.5ZM72.5 210V198H67.5V210H72.5ZM72.5 198V129H67.5V198H72.5ZM72.5 129V60H67.5V129H72.5ZM70 62.5H135V57.5H70V62.5ZM135 62.5H200V57.5H135V62.5ZM188 69.5H82V74.5H188V69.5ZM79.6123 72.741L115.612 188.741L120.388 187.259L84.3877 71.259L79.6123 72.741ZM118 190.5H200V185.5H118V190.5ZM200 190.5H224V185.5H200V190.5ZM185.641 72.8277L197.641 107.028L202.359 105.372L190.359 71.1723L185.641 72.8277ZM197.601 106.904L221.601 188.704L226.399 187.296L202.399 105.496L197.601 106.904ZM197.5 60V106.2H202.5V60H197.5Z" fill="#25282B"/>
<path d="M178 177H164" stroke="#25282B" stroke-width="5" stroke-linecap="round"/>
</svg>
